<mxfile host="app.diagrams.net" modified="2023-11-21T12:00:00.000Z" agent="5.0 (Windows NT 10.0; Win64; x64) AppleWebKit/537.36 (KHTML, like Gecko) Chrome/91.0.4472.124 Safari/537.36" etag="1" version="15.8.6" type="device">
  <diagram id="C5RBs43oDa-KdzZeNtuy" name="Page-1">
    <mxGraphModel dx="1200" dy="800" grid="1" gridSize="10" guides="1" tooltips="1" connect="1" arrows="1" fold="1" page="1" pageScale="1" pageWidth="827" pageHeight="1169" math="0" shadow="0">
      <root>
        <mxCell id="WIyWlLk6GJQsqaUBKTNV-0" />
        <mxCell id="WIyWlLk6GJQsqaUBKTNV-1" parent="WIyWlLk6GJQsqaUBKTNV-0" />
        <mxCell id="P3RjGtai6nAaVAYAQjJ4-19" value="&lt;font style=&quot;font-size: 14px;&quot;&gt;&lt;b&gt;HaMeR - OpenCV BGR与RGB色彩空间转换&lt;/b&gt;&lt;/font&gt;" style="text;html=1;strokeColor=none;fillColor=none;align=center;verticalAlign=middle;whiteSpace=wrap;rounded=0;" vertex="1" parent="WIyWlLk6GJQsqaUBKTNV-1">
          <mxGeometry x="200" y="30" width="400" height="30" as="geometry" />
        </mxCell>
        <mxCell id="image-conversion-0" value="OpenCV图像读取&#xa;cv2.imread()" style="rounded=1;whiteSpace=wrap;html=1;fontSize=12;glass=0;strokeWidth=1;shadow=0;fillColor=#dae8fc;strokeColor=#6c8ebf;" vertex="1" parent="WIyWlLk6GJQsqaUBKTNV-1">
          <mxGeometry x="160" y="80" width="170" height="40" as="geometry" />
        </mxCell>
        <mxCell id="image-conversion-1" value="BGR格式图像&#xa;img_cv2" style="rounded=1;whiteSpace=wrap;html=1;fontSize=12;glass=0;strokeWidth=1;shadow=0;fillColor=#d5e8d4;strokeColor=#82b366;" vertex="1" parent="WIyWlLk6GJQsqaUBKTNV-1">
          <mxGeometry x="160" y="160" width="170" height="40" as="geometry" />
        </mxCell>
        <mxCell id="image-conversion-2" value="复制并转换操作&#xa;img_cv2.copy()[:, :, ::-1]" style="rounded=1;whiteSpace=wrap;html=1;fontSize=12;glass=0;strokeWidth=1;shadow=0;fillColor=#fff2cc;strokeColor=#d6b656;" vertex="1" parent="WIyWlLk6GJQsqaUBKTNV-1">
          <mxGeometry x="160" y="240" width="170" height="40" as="geometry" />
        </mxCell>
        <mxCell id="image-conversion-3" value="RGB格式图像&#xa;img" style="rounded=1;whiteSpace=wrap;html=1;fontSize=12;glass=0;strokeWidth=1;shadow=0;fillColor=#f8cecc;strokeColor=#b85450;" vertex="1" parent="WIyWlLk6GJQsqaUBKTNV-1">
          <mxGeometry x="160" y="320" width="170" height="40" as="geometry" />
        </mxCell>
        <mxCell id="image-conversion-arrow-1" value="" style="endArrow=classic;html=1;rounded=0;exitX=0.5;exitY=1;exitDx=0;exitDy=0;entryX=0.5;entryY=0;entryDx=0;entryDy=0;" edge="1" parent="WIyWlLk6GJQsqaUBKTNV-1" source="image-conversion-0" target="image-conversion-1">
          <mxGeometry width="50" height="50" relative="1" as="geometry">
            <mxPoint x="390" y="430" as="sourcePoint" />
            <mxPoint x="440" y="380" as="targetPoint" />
          </mxGeometry>
        </mxCell>
        <mxCell id="image-conversion-arrow-2" value="" style="endArrow=classic;html=1;rounded=0;exitX=0.5;exitY=1;exitDx=0;exitDy=0;entryX=0.5;entryY=0;entryDx=0;entryDy=0;" edge="1" parent="WIyWlLk6GJQsqaUBKTNV-1" source="image-conversion-1" target="image-conversion-2">
          <mxGeometry width="50" height="50" relative="1" as="geometry">
            <mxPoint x="390" y="430" as="sourcePoint" />
            <mxPoint x="440" y="380" as="targetPoint" />
          </mxGeometry>
        </mxCell>
        <mxCell id="image-conversion-arrow-3" value="" style="endArrow=classic;html=1;rounded=0;exitX=0.5;exitY=1;exitDx=0;exitDy=0;entryX=0.5;entryY=0;entryDx=0;entryDy=0;" edge="1" parent="WIyWlLk6GJQsqaUBKTNV-1" source="image-conversion-2" target="image-conversion-3">
          <mxGeometry width="50" height="50" relative="1" as="geometry">
            <mxPoint x="390" y="430" as="sourcePoint" />
            <mxPoint x="440" y="380" as="targetPoint" />
          </mxGeometry>
        </mxCell>
        
        <!-- BGR 图像表示 -->
        <mxCell id="bgr-image-label" value="BGR格式说明" style="text;html=1;strokeColor=none;fillColor=none;align=center;verticalAlign=middle;whiteSpace=wrap;rounded=0;fontStyle=1" vertex="1" parent="WIyWlLk6GJQsqaUBKTNV-1">
          <mxGeometry x="414" y="150" width="100" height="20" as="geometry" />
        </mxCell>
        <mxCell id="bgr-box" value="" style="rounded=0;whiteSpace=wrap;html=1;fillColor=#f5f5f5;strokeColor=#666666;fontColor=#333333;" vertex="1" parent="WIyWlLk6GJQsqaUBKTNV-1">
          <mxGeometry x="424" y="170" width="276" height="60" as="geometry" />
        </mxCell>
        <mxCell id="bgr-b" value="B" style="rounded=0;whiteSpace=wrap;html=1;fillColor=#dae8fc;strokeColor=#6c8ebf;" vertex="1" parent="WIyWlLk6GJQsqaUBKTNV-1">
          <mxGeometry x="434" y="180" width="80" height="40" as="geometry" />
        </mxCell>
        <mxCell id="bgr-g" value="G" style="rounded=0;whiteSpace=wrap;html=1;fillColor=#d5e8d4;strokeColor=#82b366;" vertex="1" parent="WIyWlLk6GJQsqaUBKTNV-1">
          <mxGeometry x="524" y="180" width="80" height="40" as="geometry" />
        </mxCell>
        <mxCell id="bgr-r" value="R" style="rounded=0;whiteSpace=wrap;html=1;fillColor=#f8cecc;strokeColor=#b85450;" vertex="1" parent="WIyWlLk6GJQsqaUBKTNV-1">
          <mxGeometry x="614" y="180" width="80" height="40" as="geometry" />
        </mxCell>
        
        <!-- RGB 图像表示 -->
        <mxCell id="rgb-image-label" value="RGB格式说明" style="text;html=1;strokeColor=none;fillColor=none;align=center;verticalAlign=middle;whiteSpace=wrap;rounded=0;fontStyle=1" vertex="1" parent="WIyWlLk6GJQsqaUBKTNV-1">
          <mxGeometry x="414" y="310" width="100" height="20" as="geometry" />
        </mxCell>
        <mxCell id="rgb-box" value="" style="rounded=0;whiteSpace=wrap;html=1;fillColor=#f5f5f5;strokeColor=#666666;fontColor=#333333;" vertex="1" parent="WIyWlLk6GJQsqaUBKTNV-1">
          <mxGeometry x="424" y="330" width="276" height="60" as="geometry" />
        </mxCell>
        <mxCell id="rgb-r" value="R" style="rounded=0;whiteSpace=wrap;html=1;fillColor=#f8cecc;strokeColor=#b85450;" vertex="1" parent="WIyWlLk6GJQsqaUBKTNV-1">
          <mxGeometry x="434" y="340" width="80" height="40" as="geometry" />
        </mxCell>
        <mxCell id="rgb-g" value="G" style="rounded=0;whiteSpace=wrap;html=1;fillColor=#d5e8d4;strokeColor=#82b366;" vertex="1" parent="WIyWlLk6GJQsqaUBKTNV-1">
          <mxGeometry x="524" y="340" width="80" height="40" as="geometry" />
        </mxCell>
        <mxCell id="rgb-b" value="B" style="rounded=0;whiteSpace=wrap;html=1;fillColor=#dae8fc;strokeColor=#6c8ebf;" vertex="1" parent="WIyWlLk6GJQsqaUBKTNV-1">
          <mxGeometry x="614" y="340" width="80" height="40" as="geometry" />
        </mxCell>
        
        <!-- 转换过程箭头和说明 -->
        <mxCell id="convert-arrow" value="" style="endArrow=classic;html=1;rounded=0;exitX=0.5;exitY=1;exitDx=0;exitDy=0;entryX=0.5;entryY=0;entryDx=0;entryDy=0;" edge="1" parent="WIyWlLk6GJQsqaUBKTNV-1" source="bgr-box" target="rgb-box">
          <mxGeometry width="50" height="50" relative="1" as="geometry">
            <mxPoint x="390" y="430" as="sourcePoint" />
            <mxPoint x="440" y="380" as="targetPoint" />
          </mxGeometry>
        </mxCell>
        <mxCell id="convert-label" value="切片操作 [:, :, ::-1] &#xa;翻转最后一个维度&#xa;(色彩通道)" style="text;html=1;strokeColor=none;fillColor=none;align=center;verticalAlign=middle;whiteSpace=wrap;rounded=0;" vertex="1" parent="WIyWlLk6GJQsqaUBKTNV-1">
          <mxGeometry x="550" y="250" width="160" height="50" as="geometry" />
        </mxCell>
        
        <!-- 代码解释 -->
        <mxCell id="code-explanation" value="原始代码：&lt;br&gt;&lt;pre&gt;img_cv2 = cv2.imread(img_path)  # BGR格式&lt;br&gt;img = img_cv2.copy()[:, :, ::-1]  # 转为RGB格式&lt;/pre&gt;" style="rounded=0;whiteSpace=wrap;html=1;align=left;spacingLeft=10;spacingRight=10;fillColor=#ffe6cc;strokeColor=#d79b00;" vertex="1" parent="WIyWlLk6GJQsqaUBKTNV-1">
          <mxGeometry x="160" y="390" width="540" height="60" as="geometry" />
        </mxCell>
        
        <!-- 补充说明 -->
        <mxCell id="explanation" value="OpenCV的imread()函数默认以BGR格式读取图像，而大多数深度学习框架和可视化工具使用RGB格式。&#xa;&#xa;在HaMeR中，对检测和渲染等操作需要不同的色彩空间，因此会进行这种转换。&#xa;img_cv2(BGR)用于检测器，而img(RGB)用于其他处理环节。" style="text;html=1;strokeColor=none;fillColor=none;align=left;verticalAlign=top;whiteSpace=wrap;rounded=0;" vertex="1" parent="WIyWlLk6GJQsqaUBKTNV-1">
          <mxGeometry x="160" y="470" width="540" height="80" as="geometry" />
        </mxCell>
      </root>
    </mxGraphModel>
  </diagram>
</mxfile> 